<mxfile host="app.diagrams.net" agent="Python" version="20.8.3" etag="bmc"><diagram id="bmc" name="BMC"><![CDATA[<mxGraphModel dx="1280" dy="720" grid="1" gridSize="10" guides="1" tooltips="1" connect="1" arrows="1" fold="1" page="1" pageScale="1" pageWidth="1200" pageHeight="520" math="0" shadow="0"><root><mxCell id="0"/><mxCell id="1" parent="0"/><mxCell id="2" value="BMC from image" style="whiteSpace=wrap;html=1;fontSize=16;fontStyle=1;strokeColor=none;" vertex="1" parent="1"><mxGeometry x="480" y="-30" width="240" height="24" as="geometry"/></mxCell><mxCell id="3" value="<b>Key Partners</b>" style="rounded=1;whiteSpace=wrap;html=1;strokeColor=#000000;fontSize=12;fillColor=#dae8fc;" vertex="1" parent="1"><mxGeometry x="0" y="0" width="200" height="320" as="geometry"/></mxCell><mxCell id="4" value="<b>Key Activities</b><ul><li>Identify Niche</li><li>Research and Development</li><li>Choose Development Platform</li><li>Design Conversational Flows</li><li>Integrate AI Capabilities</li><li>Test Rigorously</li><li>Deploy and Monitor</li></ul>" style="rounded=1;whiteSpace=wrap;html=1;strokeColor=#000000;fontSize=12;fillColor=#fff2cc;" vertex="1" parent="1"><mxGeometry x="200" y="0" width="200" height="160" as="geometry"/></mxCell><mxCell id="5" value="<b>Key Resources</b>" style="rounded=1;whiteSpace=wrap;html=1;strokeColor=#000000;fontSize=12;fillColor=#f8cecc;" vertex="1" parent="1"><mxGeometry x="200" y="160" width="200" height="160" as="geometry"/></mxCell><mxCell id="6" value="<b>Value Propositions</b>" style="rounded=1;whiteSpace=wrap;html=1;strokeColor=#000000;fontSize=12;fillColor=#d5e8d4;" vertex="1" parent="1"><mxGeometry x="400" y="0" width="300" height="320" as="geometry"/></mxCell><mxCell id="7" value="<b>Customer Relationships</b>" style="rounded=1;whiteSpace=wrap;html=1;strokeColor=#000000;fontSize=12;fillColor=#e1d5e7;" vertex="1" parent="1"><mxGeometry x="700" y="0" width="250" height="160" as="geometry"/></mxCell><mxCell id="8" value="<b>Channels</b>" style="rounded=1;whiteSpace=wrap;html=1;strokeColor=#000000;fontSize=12;fillColor=#f5f5f5;" vertex="1" parent="1"><mxGeometry x="700" y="160" width="250" height="160" as="geometry"/></mxCell><mxCell id="9" value="<b>Customer Segments</b>" style="rounded=1;whiteSpace=wrap;html=1;strokeColor=#000000;fontSize=12;fillColor=#ffe6cc;" vertex="1" parent="1"><mxGeometry x="950" y="0" width="250" height="320" as="geometry"/></mxCell><mxCell id="10" value="<b>Cost Structure</b>" style="rounded=1;whiteSpace=wrap;html=1;strokeColor=#000000;fontSize=12;fillColor=#e2f2ff;" vertex="1" parent="1"><mxGeometry x="0" y="320" width="700" height="200" as="geometry"/></mxCell><mxCell id="11" value="<b>Revenue Streams</b>" style="rounded=1;whiteSpace=wrap;html=1;strokeColor=#000000;fontSize=12;fillColor=#ffdadb;" vertex="1" parent="1"><mxGeometry x="700" y="320" width="500" height="200" as="geometry"/></mxCell></root></mxGraphModel>]]></diagram></mxfile>